<?xml version="1.0" encoding="UTF-8" standalone="no"?>
<svg
   xmlns:dc="http://purl.org/dc/elements/1.1/"
   xmlns:cc="http://creativecommons.org/ns#"
   xmlns:rdf="http://www.w3.org/1999/02/22-rdf-syntax-ns#"
   xmlns:svg="http://www.w3.org/2000/svg"
   xmlns="http://www.w3.org/2000/svg"
   xmlns:sodipodi="http://sodipodi.sourceforge.net/DTD/sodipodi-0.dtd"
   xmlns:inkscape="http://www.inkscape.org/namespaces/inkscape"
   version="1.1"
   id="svg4170"
   viewBox="0 0 20 21.000001"
   height="21"
   width="20"
   inkscape:version="1.0.2 (e86c870879, 2021-01-15)"
   sodipodi:docname="335d44c8f32adfd28a587315c1d23982.svg">
  <sodipodi:namedview
     pagecolor="#ffffff"
     bordercolor="#666666"
     borderopacity="1"
     objecttolerance="10"
     gridtolerance="10"
     guidetolerance="10"
     inkscape:pageopacity="0"
     inkscape:pageshadow="2"
     inkscape:window-width="1920"
     inkscape:window-height="1016"
     id="namedview4831"
     showgrid="false"
     units="px"
     inkscape:zoom="14.528412"
     inkscape:cx="0.72303043"
     inkscape:cy="16.021602"
     inkscape:window-x="0"
     inkscape:window-y="27"
     inkscape:window-maximized="1"
     inkscape:current-layer="layer1"
     inkscape:document-rotation="0" />
  <defs
     id="defs4172" />
  <metadata
     id="metadata4175">
    <rdf:RDF>
      <cc:Work
         rdf:about="">
        <dc:format>image/svg+xml</dc:format>
        <dc:type
           rdf:resource="http://purl.org/dc/dcmitype/StillImage" />
        <dc:title />
      </cc:Work>
    </rdf:RDF>
  </metadata>
  <g
     transform="matrix(0.15258256,0,0,0.15258256,-1.9696686,-10.697943)"
     id="layer1">
    <path
       inkscape:export-ydpi="96"
       inkscape:export-xdpi="96"
       style="clip-rule:evenodd;fill:#ffffff;fill-rule:evenodd;stroke-width:0.0733574;image-rendering:optimizeQuality;shape-rendering:geometricPrecision;text-rendering:geometricPrecision"
       inkscape:connector-curvature="0"
       class="fil0"
       d="m 43.981583,130.72838 c 7.042322,-7.84931 0.80699,-9.90331 13.42447,-14.08472 0.586693,-6.01532 0.733581,-18.706207 6.602231,-22.300704 1.540498,-0.953591 2.494089,-1.247081 3.521089,3.080997 0.513355,2.27408 7.629232,-7.555821 9.683233,-1.100335 0.73357,2.200743 0.293342,6.235402 -0.440019,9.609822 -1.173683,5.2084 -5.795247,11.15039 -6.162001,15.91863 -0.366683,5.28174 1.980662,8.65623 4.768238,8.28941 12.617483,-1.61385 19.293045,0.73358 23.987951,5.35514 3.594575,3.52109 6.308745,7.62915 8.362745,16.13865 0.51335,1.98065 -0.0733,4.98832 0.58669,6.2354 0.73358,1.17374 2.78758,0.58668 4.98833,1.17374 3.44782,5.28174 0.44002,14.0113 -4.62158,14.15805 -3.30107,0.0733 -5.79523,0.44002 -8.58281,0.95359 -1.10041,0.22001 -1.027008,0.22001 -2.787585,0.73359 -3.521164,1.02699 -12.397473,1.90732 -17.165712,1.76064 -0.880259,0 -3.154338,-0.73365 -3.154338,-2.34748 0,-1.10034 1.760506,-3.22774 1.687174,-3.88799 -0.07331,-1.02699 -1.907323,-0.5867 -3.374488,-0.80692 -0.953592,-0.14667 -1.100334,-1.027 -1.467088,-1.24708 -0.880327,-0.51335 -1.100408,-0.51335 -1.320418,-0.36668 -0.220009,0.22001 -1.026999,1.6139 -6.382148,5.35508 -3.961324,2.71424 -8.289403,2.56749 -9.243065,2.05407 -5.501823,-3.30109 -4.914915,-6.82231 3.301079,-11.22373 -0.513356,-0.58669 -0.513356,-1.24715 -1.027,-1.90733 -5.501822,-4.40148 -6.382148,-9.68315 -5.795241,-15.4784 0.22001,-1.83399 1.027,-3.59456 1.247082,-5.42855 -11.077054,-0.14667 -11.957309,-10.3434 -10.636891,-10.63682 z"
       id="path1114" />
    <path
       inkscape:export-ydpi="96"
       inkscape:export-xdpi="96"
       style="clip-rule:evenodd;fill:#1fc1aa;fill-opacity:1;fill-rule:evenodd;stroke-width:0.0733574;image-rendering:optimizeQuality;shape-rendering:geometricPrecision;text-rendering:geometricPrecision"
       inkscape:connector-curvature="0"
       class="fil1"
       d="m 54.545137,121.77873 c 0.953591,0 1.76058,0.80692 1.76058,1.83392 0,0.95366 -0.806989,1.76058 -1.76058,1.76058 -1.026999,0 -1.833988,-0.80692 -1.833988,-1.76058 0,-1.027 0.806989,-1.83392 1.833988,-1.83392 z"
       id="path1116" />
  </g>
</svg>
