<?xml version="1.0" encoding="UTF-8" standalone="no"?>
<svg
   xmlns:dc="http://purl.org/dc/elements/1.1/"
   xmlns:cc="http://creativecommons.org/ns#"
   xmlns:rdf="http://www.w3.org/1999/02/22-rdf-syntax-ns#"
   xmlns:svg="http://www.w3.org/2000/svg"
   xmlns="http://www.w3.org/2000/svg"
   xmlns:sodipodi="http://sodipodi.sourceforge.net/DTD/sodipodi-0.dtd"
   xmlns:inkscape="http://www.inkscape.org/namespaces/inkscape"
   width="130px"
   height="27px"
   viewBox="0 0 120 27"
   version="1.1"
   id="svg18"
   sodipodi:docname="a600e1639caf18e7ed558d6e102335c0.svg"
   inkscape:version="1.0.2 (e86c870879, 2021-01-15)">
  <metadata
     id="metadata22">
    <rdf:RDF>
      <cc:Work
         rdf:about="">
        <dc:format>image/svg+xml</dc:format>
        <dc:type
           rdf:resource="http://purl.org/dc/dcmitype/StillImage" />
      </cc:Work>
    </rdf:RDF>
  </metadata>
  <sodipodi:namedview
     pagecolor="#ffffff"
     bordercolor="#666666"
     borderopacity="1"
     objecttolerance="10"
     gridtolerance="10"
     guidetolerance="10"
     inkscape:pageopacity="0"
     inkscape:pageshadow="2"
     inkscape:window-width="1920"
     inkscape:window-height="1016"
     id="namedview20"
     showgrid="false"
     inkscape:zoom="5.7961538"
     inkscape:cx="68.451609"
     inkscape:cy="14.46798"
     inkscape:window-x="0"
     inkscape:window-y="27"
     inkscape:window-maximized="1"
     inkscape:current-layer="svg18" />
  <!-- Generator: Sketch 3.3.3 (12081) - http://www.bohemiancoding.com/sketch -->
  <title
     id="title2">Envato elements black</title>
  <desc
     id="desc4">Created with Sketch.</desc>
  <defs
     id="defs6" />
  <path
     d="m 33.40535,17.995302 v 1.929779 H 25.650823 V 7.6559323 h 2.230755 V 17.995302 Z"
     style="font-style:normal;font-variant:normal;font-weight:500;font-stretch:normal;font-size:17.7044px;line-height:1.25;font-family:Ubuntu;-inkscape-font-specification:'Ubuntu Medium';fill:#000000;fill-opacity:1;stroke:none;stroke-width:0.44261"
     id="path863" />
  <path
     d="m 42.593907,19.641811 q -0.619654,0.15934 -1.611101,0.318679 -0.991446,0.177044 -2.177641,0.177044 -1.115377,0 -1.876666,-0.318679 -0.743585,-0.318679 -1.203899,-0.88522 -0.44261,-0.566541 -0.637358,-1.345534 -0.194749,-0.796698 -0.194749,-1.735031 v -5.18739 h 2.142232 v 4.851006 q 0,1.487169 0.424906,2.124528 0.44261,0.637358 1.522578,0.637358 0.389497,0 0.814403,-0.03541 0.44261,-0.03541 0.655062,-0.08852 V 10.66568 h 2.142233 z"
     style="font-style:normal;font-variant:normal;font-weight:500;font-stretch:normal;font-size:17.7044px;line-height:1.25;font-family:Ubuntu;-inkscape-font-specification:'Ubuntu Medium';fill:#000000;fill-opacity:1;stroke:none;stroke-width:0.44261"
     id="path865" />
  <path
     d="m 44.806926,15.304233 q 0,-1.026855 0.318679,-1.912075 0.31868,-0.902924 0.902925,-1.557987 0.601949,-0.655063 1.45176,-1.026855 0.849812,-0.371793 1.912076,-0.371793 1.310125,0 2.478615,0.478019 l -0.460314,1.752736 q -0.371792,-0.15934 -0.849811,-0.265566 -0.460314,-0.106227 -0.991446,-0.106227 -1.257013,0 -1.912076,0.796698 -0.655062,0.778994 -0.655062,2.21305 0,1.380943 0.619654,2.195346 0.619654,0.796698 2.089119,0.796698 0.548836,0 1.079968,-0.106227 0.531132,-0.106226 0.920629,-0.265566 l 0.300975,1.77044 q -0.354088,0.177044 -1.079969,0.318679 -0.708176,0.141635 -1.469465,0.141635 -1.186195,0 -2.071414,-0.354087 Q 46.524253,19.429358 45.940008,18.792 45.373467,18.136937 45.090197,17.251717 44.806926,16.348793 44.806926,15.304233 Z"
     style="font-style:normal;font-variant:normal;font-weight:500;font-stretch:normal;font-size:17.7044px;line-height:1.25;font-family:Ubuntu;-inkscape-font-specification:'Ubuntu Medium';fill:#000000;fill-opacity:1;stroke:none;stroke-width:0.44261"
     id="path867" />
  <path
     d="m 58.95271,12.59546 q -0.265566,-0.08852 -0.743585,-0.177044 -0.460314,-0.106226 -1.079968,-0.106226 -0.354088,0 -0.761289,0.07082 -0.389497,0.07082 -0.548837,0.123931 v 7.418143 h -2.142232 v -8.81679 q 0.619654,-0.230158 1.540283,-0.424906 0.938333,-0.212453 2.071415,-0.212453 0.212452,0 0.495723,0.03541 0.28327,0.0177 0.56654,0.07082 0.283271,0.03541 0.548837,0.106227 0.265566,0.05311 0.424905,0.106226 z"
     style="font-style:normal;font-variant:normal;font-weight:500;font-stretch:normal;font-size:17.7044px;line-height:1.25;font-family:Ubuntu;-inkscape-font-specification:'Ubuntu Medium';fill:#000000;fill-opacity:1;stroke:none;stroke-width:0.44261"
     id="path869" />
  <path
     d="m 64.069277,18.420207 q 0.991447,0 1.504874,-0.106226 v -2.372389 q -0.177044,-0.05311 -0.513427,-0.106227 -0.336384,-0.05311 -0.743585,-0.05311 -0.354088,0 -0.725881,0.05311 -0.354088,0.05311 -0.655062,0.194749 -0.283271,0.141635 -0.460315,0.407201 -0.177044,0.247861 -0.177044,0.637358 0,0.761289 0.478019,1.062264 0.478019,0.28327 1.292421,0.28327 z m -0.177044,-7.984684 q 1.062264,0 1.788144,0.265566 0.725881,0.265566 1.150786,0.743585 0.44261,0.478019 0.619654,1.16849 0.194749,0.672768 0.194749,1.48717 v 5.612295 q -0.495723,0.106226 -1.504874,0.247861 -0.991446,0.15934 -2.248459,0.15934 -0.832107,0 -1.522578,-0.15934 -0.690472,-0.159339 -1.186195,-0.513427 -0.478019,-0.354088 -0.761289,-0.920629 -0.265566,-0.566541 -0.265566,-1.398648 0,-0.796698 0.300975,-1.345534 0.318679,-0.548836 0.849811,-0.88522 0.531132,-0.354088 1.221603,-0.495723 0.708176,-0.15934 1.469466,-0.15934 0.354088,0 0.743584,0.05311 0.389497,0.03541 0.832107,0.141636 v -0.354088 q 0,-0.371793 -0.08852,-0.708176 -0.08852,-0.336384 -0.318679,-0.584246 -0.212453,-0.265566 -0.584245,-0.407201 -0.354088,-0.141635 -0.902925,-0.141635 -0.743584,0 -1.363238,0.106226 -0.619654,0.106227 -1.009151,0.247862 l -0.265568,-1.735028 q 0.407201,-0.141635 1.186195,-0.283271 0.778993,-0.141635 1.664213,-0.141635 z"
     style="font-style:normal;font-variant:normal;font-weight:500;font-stretch:normal;font-size:17.7044px;line-height:1.25;font-family:Ubuntu;-inkscape-font-specification:'Ubuntu Medium';fill:#000000;fill-opacity:1;stroke:none;stroke-width:0.44261"
     id="path871" />
  <path
     d="m 73.842081,7.5320015 q 2.673364,0 4.089716,0.973742 1.434056,0.9737419 1.434056,3.0451575 0,1.079968 -0.389496,1.858961 -0.371793,0.76129 -1.097673,1.257013 -0.725881,0.478019 -1.77044,0.708176 -1.04456,0.230157 -2.390094,0.230157 h -1.115377 v 4.319873 H 70.372019 V 7.8329763 q 0.778993,-0.177044 1.717326,-0.2301572 0.956038,-0.070818 1.752736,-0.070818 z M 74.00142,9.461781 q -0.849811,0 -1.398647,0.053113 v 4.178239 h 1.079968 q 1.611101,0 2.478616,-0.44261 0.867516,-0.460315 0.867516,-1.717327 0,-0.601949 -0.230158,-1.009151 Q 76.568558,10.116844 76.161357,9.8866866 75.754156,9.6565294 75.187615,9.5680074 74.638779,9.461781 74.00142,9.461781 Z"
     style="font-style:normal;font-variant:normal;font-weight:500;font-stretch:normal;font-size:17.7044px;line-height:1.25;font-family:Ubuntu;-inkscape-font-specification:'Ubuntu Medium';fill:#000000;fill-opacity:1;stroke:none;stroke-width:0.44261"
     id="path873" />
  <path
     d="m 84.252249,18.420207 q 0.991446,0 1.504874,-0.106226 v -2.372389 q -0.177044,-0.05311 -0.513428,-0.106227 -0.336383,-0.05311 -0.743584,-0.05311 -0.354088,0 -0.725881,0.05311 -0.354088,0.05311 -0.655062,0.194749 -0.283271,0.141635 -0.460315,0.407201 -0.177044,0.247861 -0.177044,0.637358 0,0.761289 0.478019,1.062264 0.478019,0.28327 1.292421,0.28327 z m -0.177044,-7.984684 q 1.062264,0 1.788144,0.265566 0.725881,0.265566 1.150786,0.743585 0.44261,0.478019 0.619654,1.16849 0.194749,0.672768 0.194749,1.48717 v 5.612295 q -0.495723,0.106226 -1.504874,0.247861 -0.991447,0.15934 -2.248459,0.15934 -0.832107,0 -1.522578,-0.15934 -0.690472,-0.159339 -1.186195,-0.513427 -0.478019,-0.354088 -0.761289,-0.920629 -0.265566,-0.566541 -0.265566,-1.398648 0,-0.796698 0.300975,-1.345534 0.318679,-0.548836 0.849811,-0.88522 0.531132,-0.354088 1.221603,-0.495723 0.708176,-0.15934 1.469466,-0.15934 0.354088,0 0.743584,0.05311 0.389497,0.03541 0.832107,0.141636 v -0.354088 q 0,-0.371793 -0.08852,-0.708176 -0.08852,-0.336384 -0.318679,-0.584246 -0.212453,-0.265566 -0.584245,-0.407201 -0.354088,-0.141635 -0.902925,-0.141635 -0.743584,0 -1.363238,0.106226 -0.619654,0.106227 -1.009151,0.247862 l -0.265568,-1.735028 q 0.407201,-0.141635 1.186195,-0.283271 0.778993,-0.141635 1.664213,-0.141635 z"
     style="font-style:normal;font-variant:normal;font-weight:500;font-stretch:normal;font-size:17.7044px;line-height:1.25;font-family:Ubuntu;-inkscape-font-specification:'Ubuntu Medium';fill:#000000;fill-opacity:1;stroke:none;stroke-width:0.44261"
     id="path875" />
  <path
     d="m 92.130682,15.056372 q 0,1.363238 0.584245,2.000597 0.60195,0.619654 1.540283,0.619654 0.513428,0 0.956038,-0.141636 0.460314,-0.141635 0.743584,-0.336383 v -4.797892 q -0.230157,-0.05311 -0.566541,-0.08852 -0.336383,-0.05311 -0.849811,-0.05311 -1.16849,0 -1.788144,0.778994 -0.619654,0.761289 -0.619654,2.018302 z m 5.966383,3.930376 q 0,2.21305 -1.133082,3.239905 -1.115377,1.026855 -3.434653,1.026855 -0.849812,0 -1.664214,-0.141635 -0.796698,-0.141635 -1.451761,-0.371792 l 0.389497,-1.823553 q 0.548837,0.230157 1.239308,0.371792 0.708176,0.141635 1.522578,0.141635 1.292422,0 1.841258,-0.531132 0.548836,-0.531132 0.548836,-1.575691 v -0.354088 q -0.318679,0.159339 -0.849811,0.318679 -0.513427,0.15934 -1.186195,0.15934 -0.88522,0 -1.628804,-0.283271 -0.725881,-0.28327 -1.257013,-0.832107 -0.513427,-0.548836 -0.814402,-1.363238 -0.28327,-0.832107 -0.28327,-1.912075 0,-1.009151 0.300974,-1.858962 0.31868,-0.849812 0.902925,-1.451761 0.601949,-0.60195 1.45176,-0.938333 0.849812,-0.336384 1.92978,-0.336384 1.044559,0 1.982893,0.159339 0.938333,0.15934 1.593396,0.336384 z"
     style="font-style:normal;font-variant:normal;font-weight:500;font-stretch:normal;font-size:17.7044px;line-height:1.25;font-family:Ubuntu;-inkscape-font-specification:'Ubuntu Medium';fill:#000000;fill-opacity:1;stroke:none;stroke-width:0.44261"
     id="path877" />
  <path
     d="m 100.31009,15.339642 q 0,-1.221604 0.35408,-2.142232 0.37179,-0.920629 0.97374,-1.522579 0.60195,-0.619654 1.38095,-0.920628 0.77899,-0.31868 1.5934,-0.31868 1.91208,0 2.97434,1.186195 1.07997,1.186195 1.07997,3.54088 0,0.177044 -0.0177,0.407201 0,0.212453 -0.0177,0.389497 h -6.10803 q 0.0885,1.115377 0.779,1.735031 0.70818,0.60195 2.03601,0.60195 0.779,0 1.41635,-0.141636 0.65507,-0.141635 1.02686,-0.300974 l 0.28327,1.752735 q -0.17704,0.08852 -0.49572,0.194749 -0.30098,0.08852 -0.70818,0.159339 -0.3895,0.08852 -0.84981,0.141635 -0.46032,0.05311 -0.93833,0.05311 -1.22161,0 -2.12454,-0.354087 -0.90293,-0.371793 -1.48717,-1.009151 -0.58425,-0.655063 -0.86751,-1.522579 -0.28327,-0.88522 -0.28327,-1.929779 z m 6.21425,-0.956038 q 0,-0.44261 -0.12393,-0.832106 -0.12393,-0.407202 -0.3718,-0.690472 -0.23015,-0.300975 -0.58424,-0.460314 -0.33639,-0.177044 -0.8144,-0.177044 -0.49573,0 -0.86753,0.194748 -0.37179,0.177044 -0.63736,0.478019 -0.24786,0.300975 -0.38949,0.690471 -0.14164,0.389497 -0.19475,0.796698 z"
     style="font-style:normal;font-variant:normal;font-weight:500;font-stretch:normal;font-size:17.7044px;line-height:1.25;font-family:Ubuntu;-inkscape-font-specification:'Ubuntu Medium';fill:#000000;fill-opacity:1;stroke:none;stroke-width:0.44261"
     id="path879" />
  <path
     d="m 113.71231,19.694924 q -1.27472,-0.08852 -2.07141,-0.336383 -0.779,-0.265566 -1.16849,-0.478019 l 0.60195,-1.681918 q 0.56654,0.28327 1.36323,0.513427 0.81441,0.230158 1.84126,0.230158 1.2216,0 1.68192,-0.354088 0.47802,-0.371793 0.47802,-0.973742 0,-0.407202 -0.19475,-0.708176 -0.19475,-0.300975 -0.54884,-0.531132 -0.35408,-0.230157 -0.84981,-0.424906 -0.47802,-0.194748 -1.06226,-0.407201 -0.54884,-0.194748 -1.09767,-0.44261 -0.53114,-0.247862 -0.97375,-0.60195 -0.4249,-0.371792 -0.69047,-0.88522 -0.26556,-0.513427 -0.26556,-1.257012 0,-1.221604 0.72588,-2.071415 0.72588,-0.8675155 2.23075,-1.1153771 V 6.1864672 h 1.84126 v 1.9120751 q 0.84981,0.070818 1.52258,0.2478616 0.67276,0.1593396 1.06226,0.3186792 l -0.44261,1.7527359 q -0.51343,-0.194749 -1.2216,-0.371793 -0.69047,-0.1770438 -1.5934,-0.1770438 -0.95604,0 -1.43406,0.3540878 -0.47801,0.336384 -0.47801,0.938334 0,0.354088 0.14163,0.601949 0.14164,0.230158 0.42491,0.424906 0.28327,0.177044 0.69047,0.354088 0.4072,0.159339 0.92063,0.336383 0.72588,0.283271 1.36324,0.60195 0.65506,0.300975 1.13308,0.72588 0.47802,0.407202 0.74358,0.973742 0.28327,0.566541 0.28327,1.345535 0,1.16849 -0.72588,2.018301 -0.72588,0.849811 -2.39009,1.097673 v 2.21305 h -1.84126 z"
     style="font-style:normal;font-variant:normal;font-weight:500;font-stretch:normal;font-size:17.7044px;line-height:1.25;font-family:Ubuntu;-inkscape-font-specification:'Ubuntu Medium';fill:#000000;fill-opacity:1;stroke:none;stroke-width:0.44261"
     id="path881" />
  <g
     transform="matrix(0.20839807,0,0,0.20839807,-9.0792978,-9.6234763)"
     id="layer1"
     inkscape:label="Camada 1">
    <path
       inkscape:export-ydpi="96"
       inkscape:export-xdpi="96"
       inkscape:connector-curvature="0"
       style="fill:#1fc1aa;fill-opacity:1;stroke:none;stroke-width:10.676;stroke-miterlimit:4;stroke-dasharray:none;stroke-opacity:1"
       d="M 154.39376,114.25812 A 50.270835,50.270835 0 0 1 104.12292,164.52896 50.270835,50.270835 0 0 1 53.852089,114.25812 50.270835,50.270835 0 0 1 104.12292,63.987289 50.270835,50.270835 0 0 1 154.39376,114.25812 Z"
       id="path1112" />
    <path
       inkscape:export-ydpi="96"
       inkscape:export-xdpi="96"
       style="clip-rule:evenodd;fill:#ffffff;fill-rule:evenodd;stroke-width:0.0630413;image-rendering:optimizeQuality;shape-rendering:geometricPrecision;text-rendering:geometricPrecision"
       inkscape:connector-curvature="0"
       class="fil0"
       d="m 73.900934,106.77929 c 6.051973,-6.74548 0.693504,-8.510627 11.536612,-12.10401 0.504187,-5.169398 0.630419,-16.075591 5.673771,-19.164601 1.323861,-0.819489 2.14335,-1.071706 3.025925,2.647722 0.441163,1.954281 6.556348,-6.49326 8.321498,-0.945597 0.63041,1.891257 0.25209,5.35853 -0.37814,8.258408 -1.00863,4.475957 -4.980272,9.582332 -5.29545,13.680025 -0.315117,4.538983 1.702125,7.438923 4.09769,7.123683 10.84311,-1.38689 16.5799,0.63042 20.61457,4.60206 3.08908,3.02593 5.42156,6.55628 7.18671,13.8691 0.44116,1.70212 -0.063,4.28682 0.50418,5.35853 0.63042,1.00868 2.39557,0.50418 4.28683,1.00868 2.96296,4.53898 0.37814,12.04092 -3.97165,12.16703 -2.83685,0.063 -4.98026,0.37814 -7.37583,0.81949 -0.94566,0.18907 -0.88258,0.18907 -2.39557,0.63042 -3.02599,0.88257 -10.65404,1.6391 -14.75173,1.51305 -0.75647,0 -2.71075,-0.63048 -2.71075,-2.01736 0,-0.9456 1.51293,-2.77383 1.44991,-3.34123 -0.063,-0.88257 -1.6391,-0.50419 -2.89994,-0.69344 -0.81949,-0.12605 -0.945596,-0.88258 -1.260774,-1.07171 -0.756528,-0.44116 -0.94566,-0.44116 -1.13473,-0.31511 -0.18907,0.18907 -0.882574,1.38694 -5.484639,4.602 -3.40425,2.33254 -7.123679,2.20643 -7.94323,1.76521 -4.728112,-2.83686 -4.223739,-5.8629 2.836855,-9.64536 -0.441164,-0.50418 -0.441164,-1.07176 -0.882575,-1.6391 -4.728111,-3.78251 -5.484639,-8.32143 -4.980267,-13.3017 0.18907,-1.57608 0.882575,-3.08907 1.071707,-4.66515 -9.519309,-0.12604 -10.275775,-8.88882 -9.141045,-9.14098 z"
       id="path1114" />
    <path
       inkscape:export-ydpi="96"
       inkscape:export-xdpi="96"
       style="clip-rule:evenodd;fill:#1fc1aa;fill-opacity:1;fill-rule:evenodd;stroke-width:0.0630413;image-rendering:optimizeQuality;shape-rendering:geometricPrecision;text-rendering:geometricPrecision"
       inkscape:connector-curvature="0"
       class="fil1"
       d="m 82.978955,99.088214 c 0.819489,0 1.512993,0.693442 1.512993,1.576016 0,0.81955 -0.693504,1.51299 -1.512993,1.51299 -0.882574,0 -1.576078,-0.69344 -1.576078,-1.51299 0,-0.882574 0.693504,-1.576016 1.576078,-1.576016 z"
       id="path1116" />
  </g>
</svg>
