<?xml version="1.0" encoding="UTF-8" standalone="no"?>
<svg
   xmlns:dc="http://purl.org/dc/elements/1.1/"
   xmlns:cc="http://creativecommons.org/ns#"
   xmlns:rdf="http://www.w3.org/1999/02/22-rdf-syntax-ns#"
   xmlns:svg="http://www.w3.org/2000/svg"
   xmlns="http://www.w3.org/2000/svg"
   xmlns:sodipodi="http://sodipodi.sourceforge.net/DTD/sodipodi-0.dtd"
   xmlns:inkscape="http://www.inkscape.org/namespaces/inkscape"
   width="130px"
   height="27px"
   viewBox="0 0 130 27"
   version="1.1"
   id="svg18"
   sodipodi:docname="ab1b153a91691a58ceca55efc120b195.svg"
   inkscape:version="1.0.2 (e86c870879, 2021-01-15)">
  <metadata
     id="metadata22">
    <rdf:RDF>
      <cc:Work
         rdf:about="">
        <dc:format>image/svg+xml</dc:format>
        <dc:type
           rdf:resource="http://purl.org/dc/dcmitype/StillImage" />
      </cc:Work>
    </rdf:RDF>
  </metadata>
  <sodipodi:namedview
     pagecolor="#ffffff"
     bordercolor="#666666"
     borderopacity="1"
     objecttolerance="10"
     gridtolerance="10"
     guidetolerance="10"
     inkscape:pageopacity="0"
     inkscape:pageshadow="2"
     inkscape:window-width="1920"
     inkscape:window-height="1016"
     id="namedview20"
     showgrid="false"
     inkscape:zoom="5.7961538"
     inkscape:cx="57.789286"
     inkscape:cy="7.3429196"
     inkscape:window-x="0"
     inkscape:window-y="27"
     inkscape:window-maximized="1"
     inkscape:current-layer="svg18" />
  <!-- Generator: Sketch 3.3.3 (12081) - http://www.bohemiancoding.com/sketch -->
  <title
     id="title2">Envato elements black</title>
  <desc
     id="desc4">Created with Sketch.</desc>
  <defs
     id="defs6" />
  <path
     d="M 36.751065,17.235621 V 19.1654 h -7.75452 V 6.8962517 h 2.23075 V 17.235621 Z"
     style="font-style:normal;font-variant:normal;font-weight:500;font-stretch:normal;font-size:17.7044px;line-height:1.25;font-family:Ubuntu;-inkscape-font-specification:'Ubuntu Medium';fill:#000000;fill-opacity:1;stroke:none;stroke-width:0.44261"
     id="path863" />
  <path
     d="m 45.939625,18.88213 q -0.61965,0.15934 -1.6111,0.318679 -0.99145,0.177044 -2.17764,0.177044 -1.11538,0 -1.87667,-0.318679 -0.74358,-0.318679 -1.2039,-0.88522 -0.44261,-0.566541 -0.63735,-1.345534 -0.19475,-0.796698 -0.19475,-1.735031 V 9.9059997 h 2.14223 v 4.8510053 q 0,1.487169 0.42491,2.124528 0.44261,0.637358 1.52257,0.637358 0.3895,0 0.81441,-0.03541 0.44261,-0.03541 0.65506,-0.08852 V 9.9059997 h 2.14223 z"
     style="font-style:normal;font-variant:normal;font-weight:500;font-stretch:normal;font-size:17.7044px;line-height:1.25;font-family:Ubuntu;-inkscape-font-specification:'Ubuntu Medium';fill:#000000;fill-opacity:1;stroke:none;stroke-width:0.44261"
     id="path865" />
  <path
     d="m 48.152645,14.544552 q 0,-1.026855 0.31868,-1.912075 0.31868,-0.902924 0.90292,-1.557987 0.60195,-0.655063 1.45176,-1.026855 0.84982,-0.3717933 1.91208,-0.3717933 1.31013,0 2.47862,0.4780193 l -0.46032,1.752736 q -0.37179,-0.15934 -0.84981,-0.265566 -0.46031,-0.106227 -0.99145,-0.106227 -1.25701,0 -1.91207,0.796698 -0.65506,0.778994 -0.65506,2.21305 0,1.380943 0.61965,2.195346 0.61965,0.796698 2.08912,0.796698 0.54884,0 1.07997,-0.106227 0.53113,-0.106226 0.92063,-0.265566 l 0.30097,1.77044 q -0.35409,0.177044 -1.07997,0.318679 -0.70817,0.141635 -1.46946,0.141635 -1.1862,0 -2.07142,-0.354087 -0.86751,-0.371793 -1.45176,-1.009151 -0.56654,-0.655063 -0.84981,-1.540283 -0.28327,-0.902924 -0.28327,-1.947484 z"
     style="font-style:normal;font-variant:normal;font-weight:500;font-stretch:normal;font-size:17.7044px;line-height:1.25;font-family:Ubuntu;-inkscape-font-specification:'Ubuntu Medium';fill:#000000;fill-opacity:1;stroke:none;stroke-width:0.44261"
     id="path867" />
  <path
     d="m 62.298425,11.835779 q -0.26556,-0.08852 -0.74358,-0.177044 -0.46032,-0.106226 -1.07997,-0.106226 -0.35409,0 -0.76129,0.07082 -0.3895,0.07082 -0.54884,0.123931 v 7.418143 h -2.14223 v -8.81679 q 0.61966,-0.230158 1.54029,-0.4249063 0.93833,-0.212453 2.07141,-0.212453 0.21245,0 0.49572,0.03541 0.28327,0.0177 0.56654,0.07082 0.28327,0.03541 0.54884,0.106227 0.26557,0.05311 0.42491,0.1062263 z"
     style="font-style:normal;font-variant:normal;font-weight:500;font-stretch:normal;font-size:17.7044px;line-height:1.25;font-family:Ubuntu;-inkscape-font-specification:'Ubuntu Medium';fill:#000000;fill-opacity:1;stroke:none;stroke-width:0.44261"
     id="path869" />
  <path
     d="m 67.414995,17.660526 q 0.99145,0 1.50487,-0.106226 v -2.372389 q -0.17704,-0.05311 -0.51342,-0.106227 -0.33639,-0.05311 -0.74359,-0.05311 -0.35409,0 -0.72588,0.05311 -0.35409,0.05311 -0.65506,0.194749 -0.28327,0.141635 -0.46031,0.407201 -0.17705,0.247861 -0.17705,0.637358 0,0.761289 0.47802,1.062264 0.47802,0.28327 1.29242,0.28327 z m -0.17704,-7.9846843 q 1.06226,0 1.78814,0.265566 0.72588,0.2655663 1.15079,0.7435853 0.44261,0.478019 0.61965,1.16849 0.19475,0.672768 0.19475,1.48717 v 5.612295 q -0.49572,0.106226 -1.50487,0.247861 -0.99145,0.15934 -2.24846,0.15934 -0.83211,0 -1.52258,-0.15934 -0.69047,-0.159339 -1.1862,-0.513427 -0.47802,-0.354088 -0.76129,-0.920629 -0.26556,-0.566541 -0.26556,-1.398648 0,-0.796698 0.30097,-1.345534 0.31868,-0.548836 0.84981,-0.88522 0.53114,-0.354088 1.22161,-0.495723 0.70817,-0.15934 1.46946,-0.15934 0.35409,0 0.74359,0.05311 0.38949,0.03541 0.8321,0.141636 v -0.354088 q 0,-0.371793 -0.0885,-0.708176 -0.0885,-0.336384 -0.31867,-0.584246 -0.21246,-0.265566 -0.58425,-0.407201 -0.35409,-0.141635 -0.90292,-0.141635 -0.74359,0 -1.36324,0.106226 -0.61966,0.106227 -1.00915,0.247862 l -0.26557,-1.735028 q 0.4072,-0.1416353 1.18619,-0.2832703 0.779,-0.141636 1.66422,-0.141636 z"
     style="font-style:normal;font-variant:normal;font-weight:500;font-stretch:normal;font-size:17.7044px;line-height:1.25;font-family:Ubuntu;-inkscape-font-specification:'Ubuntu Medium';fill:#000000;fill-opacity:1;stroke:none;stroke-width:0.44261"
     id="path871" />
  <path
     d="m 77.187795,6.7723207 q 2.67337,0 4.08972,0.973742 1.43406,0.973742 1.43406,3.0451573 0,1.079968 -0.3895,1.858961 -0.37179,0.76129 -1.09767,1.257013 -0.72588,0.478019 -1.77044,0.708176 -1.04456,0.230157 -2.3901,0.230157 h -1.11537 V 19.1654 h -2.23076 V 7.0732957 q 0.779,-0.177044 1.71733,-0.230158 0.95604,-0.07082 1.75273,-0.07082 z m 0.15934,1.929779 q -0.84981,0 -1.39864,0.05311 v 4.1782393 h 1.07996 q 1.61111,0 2.47862,-0.44261 0.86752,-0.460315 0.86752,-1.717327 0,-0.601949 -0.23016,-1.0091513 -0.23016,-0.407201 -0.63736,-0.637358 -0.4072,-0.230157 -0.97374,-0.318679 -0.54884,-0.106227 -1.1862,-0.106227 z"
     style="font-style:normal;font-variant:normal;font-weight:500;font-stretch:normal;font-size:17.7044px;line-height:1.25;font-family:Ubuntu;-inkscape-font-specification:'Ubuntu Medium';fill:#000000;fill-opacity:1;stroke:none;stroke-width:0.44261"
     id="path873" />
  <path
     d="m 87.597965,17.660526 q 0.99145,0 1.50488,-0.106226 v -2.372389 q -0.17705,-0.05311 -0.51343,-0.106227 -0.33638,-0.05311 -0.74359,-0.05311 -0.35408,0 -0.72588,0.05311 -0.35408,0.05311 -0.65506,0.194749 -0.28327,0.141635 -0.46031,0.407201 -0.17705,0.247861 -0.17705,0.637358 0,0.761289 0.47802,1.062264 0.47802,0.28327 1.29242,0.28327 z m -0.17704,-7.9846843 q 1.06226,0 1.78814,0.265566 0.72588,0.2655663 1.15079,0.7435853 0.44261,0.478019 0.61965,1.16849 0.19475,0.672768 0.19475,1.48717 v 5.612295 q -0.49572,0.106226 -1.50487,0.247861 -0.99145,0.15934 -2.24846,0.15934 -0.83211,0 -1.52258,-0.15934 -0.69047,-0.159339 -1.18619,-0.513427 -0.47802,-0.354088 -0.76129,-0.920629 -0.26557,-0.566541 -0.26557,-1.398648 0,-0.796698 0.30098,-1.345534 0.31867,-0.548836 0.84981,-0.88522 0.53113,-0.354088 1.2216,-0.495723 0.70818,-0.15934 1.46947,-0.15934 0.35408,0 0.74358,0.05311 0.3895,0.03541 0.83211,0.141636 v -0.354088 q 0,-0.371793 -0.0885,-0.708176 -0.0885,-0.336384 -0.31868,-0.584246 -0.21246,-0.265566 -0.58425,-0.407201 -0.35409,-0.141635 -0.90292,-0.141635 -0.74359,0 -1.36324,0.106226 -0.61965,0.106227 -1.00915,0.247862 l -0.26557,-1.735028 q 0.4072,-0.1416353 1.1862,-0.2832703 0.77899,-0.141636 1.66421,-0.141636 z"
     style="font-style:normal;font-variant:normal;font-weight:500;font-stretch:normal;font-size:17.7044px;line-height:1.25;font-family:Ubuntu;-inkscape-font-specification:'Ubuntu Medium';fill:#000000;fill-opacity:1;stroke:none;stroke-width:0.44261"
     id="path875" />
  <path
     d="m 95.476405,14.296691 q 0,1.363238 0.58424,2.000597 0.60195,0.619654 1.54028,0.619654 0.51343,0 0.95604,-0.141636 0.46032,-0.141635 0.74359,-0.336383 v -4.797892 q -0.23016,-0.05311 -0.56655,-0.08852 -0.33638,-0.05311 -0.84981,-0.05311 -1.16849,0 -1.78814,0.778994 -0.61965,0.761289 -0.61965,2.018302 z m 5.966385,3.930376 q 0,2.21305 -1.13308,3.239905 -1.115385,1.026855 -3.434665,1.026855 -0.84981,0 -1.66421,-0.141635 -0.7967,-0.141635 -1.45176,-0.371792 l 0.3895,-1.823553 q 0.54883,0.230157 1.2393,0.371792 0.70818,0.141635 1.52258,0.141635 1.29242,0 1.84126,-0.531132 0.54884,-0.531132 0.54884,-1.575691 v -0.354088 q -0.31868,0.159339 -0.84982,0.318679 -0.51342,0.15934 -1.18619,0.15934 -0.88522,0 -1.6288,-0.283271 -0.72589,-0.28327 -1.25702,-0.832107 -0.51342,-0.548836 -0.8144,-1.363238 -0.28327,-0.832107 -0.28327,-1.912075 0,-1.009151 0.30097,-1.858962 0.31868,-0.849812 0.90293,-1.451761 0.60195,-0.60195 1.45176,-0.938333 0.84981,-0.3363843 1.92978,-0.3363843 1.04456,0 1.98289,0.15934 0.938345,0.1593393 1.593405,0.3363833 z"
     style="font-style:normal;font-variant:normal;font-weight:500;font-stretch:normal;font-size:17.7044px;line-height:1.25;font-family:Ubuntu;-inkscape-font-specification:'Ubuntu Medium';fill:#000000;fill-opacity:1;stroke:none;stroke-width:0.44261"
     id="path877" />
  <path
     d="m 103.65581,14.579961 q 0,-1.221604 0.35409,-2.142232 0.37179,-0.920629 0.97374,-1.522579 0.60195,-0.619654 1.38095,-0.9206283 0.77899,-0.31868 1.59339,-0.31868 1.91208,0 2.97434,1.1861953 1.07997,1.186195 1.07997,3.54088 0,0.177044 -0.0177,0.407201 0,0.212453 -0.0177,0.389497 h -6.10802 q 0.0885,1.115377 0.779,1.735031 0.70817,0.60195 2.036,0.60195 0.779,0 1.41635,-0.141636 0.65507,-0.141635 1.02686,-0.300974 l 0.28327,1.752735 q -0.17704,0.08852 -0.49572,0.194749 -0.30098,0.08852 -0.70818,0.159339 -0.3895,0.08852 -0.84981,0.141635 -0.46032,0.05311 -0.93833,0.05311 -1.22161,0 -2.12453,-0.354087 -0.90293,-0.371793 -1.48717,-1.009151 -0.58425,-0.655063 -0.86752,-1.522579 -0.28327,-0.88522 -0.28327,-1.929779 z m 6.21425,-0.956038 q 0,-0.44261 -0.12393,-0.832106 -0.12393,-0.407202 -0.3718,-0.690472 -0.23015,-0.300975 -0.58424,-0.460314 -0.33639,-0.177044 -0.8144,-0.177044 -0.49573,0 -0.86752,0.194748 -0.37179,0.177044 -0.63736,0.478019 -0.24786,0.300975 -0.38949,0.690471 -0.14164,0.389497 -0.19475,0.796698 z"
     style="font-style:normal;font-variant:normal;font-weight:500;font-stretch:normal;font-size:17.7044px;line-height:1.25;font-family:Ubuntu;-inkscape-font-specification:'Ubuntu Medium';fill:#000000;fill-opacity:1;stroke:none;stroke-width:0.44261"
     id="path879" />
  <path
     d="m 117.05803,18.935243 q -1.27472,-0.08852 -2.07141,-0.336383 -0.779,-0.265566 -1.16849,-0.478019 l 0.60195,-1.681918 q 0.56654,0.28327 1.36323,0.513427 0.81441,0.230158 1.84126,0.230158 1.2216,0 1.68192,-0.354088 0.47802,-0.371793 0.47802,-0.973742 0,-0.407202 -0.19475,-0.708176 -0.19475,-0.300975 -0.54884,-0.531132 -0.35408,-0.230157 -0.84981,-0.424906 -0.47802,-0.194748 -1.06226,-0.407201 -0.54884,-0.194748 -1.09767,-0.44261 -0.53114,-0.247862 -0.97375,-0.60195 -0.4249,-0.371792 -0.69047,-0.88522 -0.26556,-0.513427 -0.26556,-1.257012 0,-1.2216033 0.72588,-2.0714153 0.72588,-0.867515 2.23075,-1.115377 v -1.982892 h 1.84126 v 1.912075 q 0.84981,0.07082 1.52258,0.247861 0.67276,0.15934 1.06226,0.318679 l -0.44261,1.752736 q -0.51343,-0.194748 -1.2216,-0.371792 -0.69047,-0.177044 -1.5934,-0.177044 -0.95604,0 -1.43406,0.354088 -0.47801,0.336383 -0.47801,0.9383333 0,0.354088 0.14163,0.601949 0.14164,0.230158 0.42491,0.424906 0.28327,0.177044 0.69047,0.354088 0.4072,0.159339 0.92063,0.336383 0.72588,0.283271 1.36324,0.60195 0.65506,0.300975 1.13308,0.72588 0.47802,0.407202 0.74358,0.973742 0.28327,0.566541 0.28327,1.345535 0,1.16849 -0.72588,2.018301 -0.72588,0.849811 -2.39009,1.097673 v 2.21305 h -1.84126 z"
     style="font-style:normal;font-variant:normal;font-weight:500;font-stretch:normal;font-size:17.7044px;line-height:1.25;font-family:Ubuntu;-inkscape-font-specification:'Ubuntu Medium';fill:#000000;fill-opacity:1;stroke:none;stroke-width:0.44261"
     id="path881" />
  <g
     transform="matrix(0.20839807,0,0,0.20839807,-5.7335788,-10.383157)"
     id="layer1"
     inkscape:label="Camada 1">
    <path
       inkscape:export-ydpi="96"
       inkscape:export-xdpi="96"
       inkscape:connector-curvature="0"
       style="fill:#1fc1aa;fill-opacity:1;stroke:none;stroke-width:10.676;stroke-miterlimit:4;stroke-dasharray:none;stroke-opacity:1"
       d="M 154.39376,114.25812 A 50.270835,50.270835 0 0 1 104.12292,164.52896 50.270835,50.270835 0 0 1 53.852089,114.25812 50.270835,50.270835 0 0 1 104.12292,63.987289 50.270835,50.270835 0 0 1 154.39376,114.25812 Z"
       id="path1112" />
    <path
       inkscape:export-ydpi="96"
       inkscape:export-xdpi="96"
       style="clip-rule:evenodd;fill:#ffffff;fill-rule:evenodd;stroke-width:0.0630413;image-rendering:optimizeQuality;shape-rendering:geometricPrecision;text-rendering:geometricPrecision"
       inkscape:connector-curvature="0"
       class="fil0"
       d="m 73.900934,106.77929 c 6.051973,-6.74548 0.693504,-8.510627 11.536612,-12.10401 0.504187,-5.169398 0.630419,-16.075591 5.673771,-19.164601 1.323861,-0.819489 2.14335,-1.071706 3.025925,2.647722 0.441163,1.954281 6.556348,-6.49326 8.321498,-0.945597 0.63041,1.891257 0.25209,5.35853 -0.37814,8.258408 -1.00863,4.475957 -4.980272,9.582332 -5.29545,13.680025 -0.315117,4.538983 1.702125,7.438923 4.09769,7.123683 10.84311,-1.38689 16.5799,0.63042 20.61457,4.60206 3.08908,3.02593 5.42156,6.55628 7.18671,13.8691 0.44116,1.70212 -0.063,4.28682 0.50418,5.35853 0.63042,1.00868 2.39557,0.50418 4.28683,1.00868 2.96296,4.53898 0.37814,12.04092 -3.97165,12.16703 -2.83685,0.063 -4.98026,0.37814 -7.37583,0.81949 -0.94566,0.18907 -0.88258,0.18907 -2.39557,0.63042 -3.02599,0.88257 -10.65404,1.6391 -14.75173,1.51305 -0.75647,0 -2.71075,-0.63048 -2.71075,-2.01736 0,-0.9456 1.51293,-2.77383 1.44991,-3.34123 -0.063,-0.88257 -1.6391,-0.50419 -2.89994,-0.69344 -0.81949,-0.12605 -0.945596,-0.88258 -1.260774,-1.07171 -0.756528,-0.44116 -0.94566,-0.44116 -1.13473,-0.31511 -0.18907,0.18907 -0.882574,1.38694 -5.484639,4.602 -3.40425,2.33254 -7.123679,2.20643 -7.94323,1.76521 -4.728112,-2.83686 -4.223739,-5.8629 2.836855,-9.64536 -0.441164,-0.50418 -0.441164,-1.07176 -0.882575,-1.6391 -4.728111,-3.78251 -5.484639,-8.32143 -4.980267,-13.3017 0.18907,-1.57608 0.882575,-3.08907 1.071707,-4.66515 -9.519309,-0.12604 -10.275775,-8.88882 -9.141045,-9.14098 z"
       id="path1114" />
    <path
       inkscape:export-ydpi="96"
       inkscape:export-xdpi="96"
       style="clip-rule:evenodd;fill:#1fc1aa;fill-opacity:1;fill-rule:evenodd;stroke-width:0.0630413;image-rendering:optimizeQuality;shape-rendering:geometricPrecision;text-rendering:geometricPrecision"
       inkscape:connector-curvature="0"
       class="fil1"
       d="m 82.978955,99.088214 c 0.819489,0 1.512993,0.693442 1.512993,1.576016 0,0.81955 -0.693504,1.51299 -1.512993,1.51299 -0.882574,0 -1.576078,-0.69344 -1.576078,-1.51299 0,-0.882574 0.693504,-1.576016 1.576078,-1.576016 z"
       id="path1116" />
  </g>
</svg>
