<?xml version="1.0" encoding="UTF-8" standalone="no"?>
<svg
   xmlns:dc="http://purl.org/dc/elements/1.1/"
   xmlns:cc="http://creativecommons.org/ns#"
   xmlns:rdf="http://www.w3.org/1999/02/22-rdf-syntax-ns#"
   xmlns:svg="http://www.w3.org/2000/svg"
   xmlns="http://www.w3.org/2000/svg"
   xmlns:sodipodi="http://sodipodi.sourceforge.net/DTD/sodipodi-0.dtd"
   xmlns:inkscape="http://www.inkscape.org/namespaces/inkscape"
   version="1.1"
   id="svg4170"
   viewBox="0 0 20 21.000001"
   height="21"
   width="20"
   inkscape:version="1.0.2 (e86c870879, 2021-01-15)"
   sodipodi:docname="dba3a450fba983a6001a549bfb02caf1.svg">
  <sodipodi:namedview
     pagecolor="#ffffff"
     bordercolor="#666666"
     borderopacity="1"
     objecttolerance="10"
     gridtolerance="10"
     guidetolerance="10"
     inkscape:pageopacity="0"
     inkscape:pageshadow="2"
     inkscape:window-width="1920"
     inkscape:window-height="1016"
     id="namedview4831"
     showgrid="false"
     units="px"
     inkscape:zoom="14.528412"
     inkscape:cx="-2.1390232"
     inkscape:cy="10.298952"
     inkscape:window-x="0"
     inkscape:window-y="27"
     inkscape:window-maximized="1"
     inkscape:current-layer="layer1"
     inkscape:document-rotation="0" />
  <defs
     id="defs4172" />
  <metadata
     id="metadata4175">
    <rdf:RDF>
      <cc:Work
         rdf:about="">
        <dc:format>image/svg+xml</dc:format>
        <dc:type
           rdf:resource="http://purl.org/dc/dcmitype/StillImage" />
        <dc:title />
      </cc:Work>
    </rdf:RDF>
  </metadata>
  <g
     transform="matrix(0.15258256,0,0,0.15258256,-1.9696686,-10.697943)"
     id="layer1">
    <path
       d="m 315.55594,148.88453 q 0,8.93443 3.82904,13.11157 3.94508,4.06111 10.09476,4.06111 3.36492,0 6.26571,-0.92826 3.01681,-0.92825 4.87332,-2.20459 v -31.44457 q -1.50841,-0.34807 -3.71301,-0.58014 -2.2046,-0.34808 -5.56952,-0.34808 -7.65808,0 -11.71919,5.1054 -4.06111,4.98935 -4.06111,13.2276 z m 39.10266,25.75902 q 0,14.50395 -7.42603,21.23378 -7.30999,6.72983 -22.51013,6.72983 -5.56952,0 -10.90697,-0.92825 -5.22142,-0.92825 -9.51459,-2.43666 l 2.55269,-11.95126 q 3.59699,1.50841 8.12221,2.43666 4.64127,0.92826 9.97872,0.92826 8.47031,0 12.06729,-3.48095 3.59698,-3.48095 3.59698,-10.32681 v -2.32063 q -2.08857,1.04428 -5.56952,2.08856 -3.36491,1.04429 -7.77412,1.04429 -5.80158,0 -10.6749,-1.85651 -4.7573,-1.8565 -8.23825,-5.45349 -3.36491,-3.59697 -5.33745,-8.93442 -1.8565,-5.45349 -1.8565,-12.53142 0,-6.6138 1.97253,-12.18332 2.08857,-5.56952 5.91762,-9.51459 3.94507,-3.94508 9.51458,-6.14967 5.56952,-2.2046 12.64745,-2.2046 6.84586,0 12.99554,1.04428 6.14968,1.04428 10.44285,2.2046 z"
       style="font-style:normal;font-variant:normal;font-weight:500;font-stretch:normal;font-size:17.7044px;line-height:1.25;font-family:Ubuntu;-inkscape-font-specification:'Ubuntu Medium';fill:#000000;fill-opacity:1;stroke:none;stroke-width:2.90079"
       id="path877" />
    <path
       d="m 369.16235,150.74104 q 0,-8.00619 2.32063,-14.03983 2.43665,-6.03364 6.38172,-9.97872 3.94508,-4.0611 9.05051,-6.03364 5.10537,-2.08857 10.44281,-2.08857 12.53144,0 19.49331,7.77412 7.07794,7.77412 7.07794,23.20632 0,1.16032 -0.116,2.66873 0,1.39238 -0.116,2.55269 h -40.03092 q 0.58001,7.30999 5.10543,11.3711 4.64123,3.94508 13.3436,3.94508 5.10543,0 9.28251,-0.92826 4.29322,-0.92825 6.72987,-1.97253 l 1.8565,11.48712 q -1.16029,0.58015 -3.24886,1.27635 -1.97257,0.58015 -4.64129,1.04428 -2.55272,0.58015 -5.56951,0.92826 -3.01686,0.34807 -6.14966,0.34807 -8.00622,0 -13.9238,-2.32063 -5.91765,-2.43666 -9.74666,-6.6138 -3.82908,-4.29317 -5.68556,-9.97872 -1.8565,-5.80158 -1.8565,-12.64744 z m 40.72711,-6.26571 q 0,-2.90079 -0.81221,-5.45348 -0.81222,-2.66874 -2.43672,-4.52524 -1.50836,-1.97254 -3.82901,-3.01682 -2.20464,-1.16031 -5.33743,-1.16031 -3.24893,0 -5.68558,1.27634 -2.43665,1.16032 -4.17715,3.13286 -1.62443,1.97253 -2.55265,4.52522 -0.92828,2.5527 -1.27636,5.22143 z"
       style="font-style:normal;font-variant:normal;font-weight:500;font-stretch:normal;font-size:17.7044px;line-height:1.25;font-family:Ubuntu;-inkscape-font-specification:'Ubuntu Medium';fill:#000000;fill-opacity:1;stroke:none;stroke-width:2.90079"
       id="path879" />
    <path
       d="m 456.99819,179.28481 q -8.3543,-0.58014 -13.57567,-2.2046 -5.10543,-1.74047 -7.65808,-3.13285 l 3.94508,-11.023 q 3.713,1.8565 8.93437,3.36491 5.33751,1.50841 12.06731,1.50841 8.00615,0 11.02301,-2.32063 3.13286,-2.43667 3.13286,-6.38174 0,-2.66873 -1.27635,-4.64126 -1.27636,-1.97254 -3.59701,-3.48095 -2.32058,-1.50841 -5.56951,-2.78476 -3.13286,-1.27635 -6.96187,-2.66873 -3.597,-1.27634 -7.19394,-2.90079 -3.481,-1.62444 -6.38179,-3.94507 -2.78472,-2.43666 -4.52522,-5.80158 -1.74044,-3.36492 -1.74044,-8.23825 0,-8.00618 4.7573,-13.57569 4.75729,-5.68555 14.61995,-7.30999 V 90.752697 h 12.0673 v 12.531413 q 5.56951,0.46413 9.97873,1.62444 4.40916,1.04429 6.96187,2.08857 l -2.90079,11.48713 q -3.36493,-1.27635 -8.00616,-2.43666 -4.52522,-1.16032 -10.44287,-1.16032 -6.26572,0 -9.39858,2.32063 -3.1328,2.2046 -3.1328,6.14968 0,2.32063 0.92822,3.94507 0.92829,1.50842 2.78479,2.78476 1.8565,1.16032 4.52522,2.32063 2.66872,1.04428 6.03365,2.2046 4.7573,1.85651 8.93445,3.94508 4.29315,1.97254 7.42601,4.75729 3.13286,2.66873 4.87329,6.38174 1.85651,3.71301 1.85651,8.81841 0,7.65808 -4.7573,13.2276 -4.75729,5.56951 -15.66424,7.19396 v 14.50395 h -12.0673 z"
       style="font-style:normal;font-variant:normal;font-weight:500;font-stretch:normal;font-size:17.7044px;line-height:1.25;font-family:Ubuntu;-inkscape-font-specification:'Ubuntu Medium';fill:#000000;fill-opacity:1;stroke:none;stroke-width:2.90079"
       id="path881" />
    <g
       id="g886">
      <path
         inkscape:export-ydpi="96"
         inkscape:export-xdpi="96"
         style="clip-rule:evenodd;fill:#ffffff;fill-rule:evenodd;stroke-width:0.0861021;image-rendering:optimizeQuality;shape-rendering:geometricPrecision;text-rendering:geometricPrecision"
         inkscape:connector-curvature="0"
         class="fil0"
         d="m 37.812803,127.77589 c 8.265817,-9.21301 0.947192,-11.62386 15.756766,-16.53172 0.688621,-7.06039 0.86103,-21.956128 7.749267,-26.175114 1.808136,-1.119263 2.927398,-1.463742 4.132824,3.616272 0.602543,2.669168 8.954695,-8.868529 11.365546,-1.291501 0.861017,2.583089 0.344306,7.318709 -0.516465,11.279377 -1.377593,6.113286 -6.802082,13.087596 -7.232554,18.684246 -0.430389,6.19937 2.324771,10.16013 5.596647,9.72957 14.809577,-1.89422 22.644915,0.86103 28.155486,6.28552 4.21908,4.13283 7.4048,8.9546 9.81565,18.94249 0.60254,2.32476 -0.0861,5.85496 0.68861,7.31871 0.86103,1.37766 3.27188,0.68861 5.85498,1.37766 4.04682,6.19936 0.51646,16.44555 -5.4245,16.61779 -3.87459,0.0861 -6.80207,0.51647 -10.07395,1.11926 -1.29159,0.25824 -1.20543,0.25824 -3.27188,0.86104 -4.132918,1.20541 -14.551349,2.23869 -20.147996,2.06653 -1.03319,0 -3.702356,-0.86112 -3.702356,-2.75532 0,-1.29151 2.066368,-3.78852 1.980294,-4.56347 -0.08604,-1.20542 -2.238691,-0.68863 -3.960753,-0.94711 -1.119264,-0.17216 -1.2915,-1.20543 -1.721972,-1.46374 -1.03327,-0.60254 -1.291587,-0.60254 -1.54982,-0.43038 -0.258233,0.25823 -1.205424,1.89429 -7.490949,6.28543 -4.649543,3.1858 -9.729559,3.01356 -10.848906,2.41094 -6.45768,-3.8746 -5.768805,-8.00758 3.874592,-13.17369 -0.602544,-0.68861 -0.602544,-1.46381 -1.205426,-2.23869 -6.457679,-5.16617 -7.490949,-11.36545 -6.802075,-18.16753 0.258233,-2.15262 1.205426,-4.21907 1.463743,-6.37169 -13.001522,-0.17215 -14.034708,-12.1404 -12.484887,-12.4848 z"
         id="path1114" />
      <path
         inkscape:export-ydpi="96"
         inkscape:export-xdpi="96"
         style="clip-rule:evenodd;fill:#1fc1aa;fill-opacity:1;fill-rule:evenodd;stroke-width:0.0861021;image-rendering:optimizeQuality;shape-rendering:geometricPrecision;text-rendering:geometricPrecision"
         inkscape:connector-curvature="0"
         class="fil1"
         d="m 50.211613,117.27138 c 1.119262,0 2.066453,0.9471 2.066453,2.15253 0,1.11934 -0.947191,2.06645 -2.066453,2.06645 -1.205425,0 -2.152616,-0.94711 -2.152616,-2.06645 0,-1.20543 0.947191,-2.15253 2.152616,-2.15253 z"
         id="path1116" />
    </g>
  </g>
</svg>
